# xmcd
#
# Track frame offsets:
#	187
#	14557
#	34917
#	56220
#	75205
#	98280
#	114995
#	131357
#	151655
#	172465
#
# Disc length: 2661 seconds
#
# Revision: 1
# Processed by: cddbd v1.5.1PL0 Copyright (c) Steve Scherf et al.
# Submitted via: CDex 1.50Beta5
#
DISCID=710a630a
DTITLE=ARB - トラブル中毒
DYEAR=1900
DGENRE=
TTITLE0=Do It! Boy
TTITLE1=Give Me A Chance
TTITLE2=ポート・ピープル
TTITLE3=Black Is No.1
TTITLE4=ピエロ
TTITLE5=War Is Over!
TTITLE6=モンロー日記
TTITLE7=ギターをもった少年
TTITLE8=トラブル・キッズ
TTITLE9=ファクトリー
EXTD=
EXTT0=
EXTT1=
EXTT2=
EXTT3=
EXTT4=
EXTT5=
EXTT6=
EXTT7=
EXTT8=
EXTT9=
PLAYORDER=
